999
dxfrw 0.6.3
  0
SECTION
  2
HEADER
  9
$ACADVER
  1
AC1021
  9
$DWGCODEPAGE
  3
ANSI_1252
  9
$INSBASE
 10
0
 20
0
 30
0
  9
$EXTMIN
 10
-67.94374943533245
 20
-111.253151733707
 30
0
  9
$EXTMAX
 10
217.8062506416009
 20
-6.534488939218866
 30
0
  9
$LIMMIN
 10
0
 20
0
  9
$LIMMAX
 10
420
 20
297
  9
$ORTHOMODE
 70
    0
  9
$REGENMODE
 70
    1
  9
$FILLMODE
 70
    1
  9
$QTEXTMODE
 70
    0
  9
$MIRRTEXT
 70
    0
  9
$LTSCALE
 40
1
  9
$ATTMODE
 70
    0
  9
$TEXTSIZE
 40
2.5
  9
$TRACEWID
 40
15.68
  9
$TEXTSTYLE
  7
STANDARD
  9
$CLAYER
  8
0
  9
$CELTYPE
  6
BYLAYER
  9
$CECOLOR
 62
  256
  9
$CELTSCALE
 40
1
  9
$DISPSILH
 70
    0
  9
$DIMSCALE
 40
2.5
  9
$DIMASZ
 40
2.5
  9
$DIMEXO
 40
0.625
  9
$DIMDLI
 40
3.75
  9
$DIMRND
 40
0
  9
$DIMDLE
 40
0
  9
$DIMEXE
 40
1.25
  9
$DIMTP
 40
0
  9
$DIMTM
 40
0
  9
$DIMTXT
 40
2.5
  9
$DIMCEN
 40
2.5
  9
$DIMTSZ
 40
0
  9
$DIMTOL
 70
    0
  9
$DIMLIM
 70
    0
  9
$DIMTIH
 70
    0
  9
$DIMTOH
 70
    0
  9
$DIMSE1
 70
    0
  9
$DIMSE2
 70
    0
  9
$DIMTAD
 70
    1
  9
$DIMZIN
 70
    8
  9
$DIMBLK
  1

  9
$DIMASO
 70
    1
  9
$DIMSHO
 70
    1
  9
$DIMPOST
  1

  9
$DIMAPOST
  1

  9
$DIMALT
 70
    0
  9
$DIMALTD
 70
    3
  9
$DIMALTF
 40
0.03937
  9
$DIMLFAC
 40
1
  9
$DIMTOFL
 70
    1
  9
$DIMTVP
 40
0
  9
$DIMTIX
 70
    0
  9
$DIMSOXD
 70
    0
  9
$DIMSAH
 70
    0
  9
$DIMBLK1
  1

  9
$DIMBLK2
  1

  9
$DIMSTYLE
  2
Standard
  9
$DIMCLRD
 70
    0
  9
$DIMCLRE
 70
    0
  9
$DIMCLRT
 70
    0
  9
$DIMTFAC
 40
1
  9
$DIMGAP
 40
0.625
  9
$DIMJUST
 70
    0
  9
$DIMSD1
 70
    0
  9
$DIMSD2
 70
    0
  9
$DIMTOLJ
 70
    0
  9
$DIMTZIN
 70
    8
  9
$DIMALTZ
 70
    0
  9
$DIMALTTZ
 70
    0
  9
$DIMUPT
 70
    0
  9
$DIMDEC
 70
    2
  9
$DIMTDEC
 70
    2
  9
$DIMALTU
 70
    2
  9
$DIMALTTD
 70
    3
  9
$DIMTXSTY
  7
STANDARD
  9
$DIMAUNIT
 70
    0
  9
$DIMADEC
 70
    0
  9
$DIMALTRND
 40
0
  9
$DIMAZIN
 70
    0
  9
$DIMDSEP
 70
   44
  9
$DIMATFIT
 70
    3
  9
$DIMFRAC
 70
    0
  9
$DIMLDRBLK
  1
STANDARD
  9
$DIMLUNIT
 70
    2
  9
$DIMLWD
 70
   -2
  9
$DIMLWE
 70
   -2
  9
$DIMTMOVE
 70
    0
  9
$DIMFXL
 40
1
  9
$DIMFXLON
 70
    0
  9
$DIMJOGANG
 40
0.7854
  9
$DIMTFILL
 70
    0
  9
$DIMTFILLCLR
 70
    0
  9
$DIMARCSYM
 70
    0
  9
$DIMLTYPE
  6

  9
$DIMLTEX1
  6

  9
$DIMLTEX2
  6

  9
$LUNITS
 70
    2
  9
$LUPREC
 70
    4
  9
$SKETCHINC
 40
1
  9
$FILLETRAD
 40
0
  9
$AUNITS
 70
    0
  9
$AUPREC
 70
    2
  9
$MENU
  1
.
  9
$ELEVATION
 40
0
  9
$PELEVATION
 40
0
  9
$THICKNESS
 40
0
  9
$LIMCHECK
 70
    0
  9
$CHAMFERA
 40
0
  9
$CHAMFERB
 40
0
  9
$CHAMFERC
 40
0
  9
$CHAMFERD
 40
0
  9
$SKPOLY
 70
    0
  9
$USRTIMER
 70
    1
  9
$ANGBASE
 50
0
  9
$ANGDIR
 70
    0
  9
$PDMODE
 70
   34
  9
$PDSIZE
 40
0
  9
$PLINEWID
 40
0
  9
$SPLFRAME
 70
    0
  9
$SPLINETYPE
 70
    2
  9
$SPLINESEGS
 70
    8
  9
$HANDSEED
  5
20000
  9
$SURFTAB1
 70
    6
  9
$SURFTAB2
 70
    6
  9
$SURFTYPE
 70
    6
  9
$SURFU
 70
    6
  9
$SURFV
 70
    6
  9
$UCSBASE
  2

  9
$UCSNAME
  2

  9
$UCSORG
 10
0
 20
0
 30
0
  9
$UCSXDIR
 10
1
 20
0
 30
0
  9
$UCSYDIR
 10
0
 20
1
 30
0
  9
$UCSORTHOREF
  2

  9
$UCSORTHOVIEW
 70
    0
  9
$UCSORGTOP
 10
0
 20
0
 30
0
  9
$UCSORGBOTTOM
 10
0
 20
0
 30
0
  9
$UCSORGLEFT
 10
0
 20
0
 30
0
  9
$UCSORGRIGHT
 10
0
 20
0
 30
0
  9
$UCSORGFRONT
 10
0
 20
0
 30
0
  9
$UCSORGBACK
 10
0
 20
0
 30
0
  9
$PUCSBASE
  2

  9
$PUCSNAME
  2

  9
$PUCSORG
 10
0
 20
0
 30
0
  9
$PUCSXDIR
 10
1
 20
0
 30
0
  9
$PUCSYDIR
 10
0
 20
1
 30
0
  9
$PUCSORTHOREF
  2

  9
$PUCSORTHOVIEW
 70
    0
  9
$PUCSORGTOP
 10
0
 20
0
 30
0
  9
$PUCSORGBOTTOM
 10
0
 20
0
 30
0
  9
$PUCSORGLEFT
 10
0
 20
0
 30
0
  9
$PUCSORGRIGHT
 10
0
 20
0
 30
0
  9
$PUCSORGFRONT
 10
0
 20
0
 30
0
  9
$PUCSORGBACK
 10
0
 20
0
 30
0
  9
$USERI1
 70
    0
  9
$USERI2
 70
    0
  9
$USERI3
 70
    0
  9
$USERI4
 70
    0
  9
$USERI5
 70
    0
  9
$USERR1
 40
0
  9
$USERR2
 40
0
  9
$USERR3
 40
0
  9
$USERR4
 40
0
  9
$USERR5
 40
0
  9
$WORLDVIEW
 70
    1
  9
$SHADEDGE
 70
    3
  9
$SHADEDIF
 70
   70
  9
$TILEMODE
 70
    1
  9
$MAXACTVP
 70
   64
  9
$PINSBASE
 10
0
 20
0
 30
0
  9
$PLIMCHECK
 70
    0
  9
$PEXTMIN
 10
0
 20
0
 30
0
  9
$PEXTMAX
 10
0
 20
0
 30
0
  9
$GRIDMODE
 70
    1
  9
$SNAPSTYLE
 70
    0
  9
$PLIMMIN
 10
0
 20
0
  9
$PLIMMAX
 10
210
 20
297
  9
$UNITMODE
 70
    0
  9
$VISRETAIN
 70
    1
  9
$PLINEGEN
 70
    0
  9
$PSLTSCALE
 70
    1
  9
$TREEDEPTH
 70
 3020
  9
$CMLSTYLE
  2
Standard
  9
$CMLJUST
 70
    0
  9
$CMLSCALE
 40
20
  9
$PROXYGRAPHICS
 70
    1
  9
$MEASUREMENT
 70
    1
  9
$CELWEIGHT
370
   -1
  9
$ENDCAPS
280
    0
  9
$JOINSTYLE
280
    0
  9
$LWDISPLAY
290
    0
  9
$INSUNITS
 70
    4
  9
$HYPERLINKBASE
  1

  9
$STYLESHEET
  1

  9
$XEDIT
290
    1
  9
$CEPSNTYPE
380
    0
  9
$PSTYLEMODE
290
    1
  9
$EXTNAMES
290
    1
  9
$PSVPSCALE
 40
1
  9
$OLESTARTUP
290
    0
  9
$SORTENTS
280
  127
  9
$INDEXCTL
280
    0
  9
$HIDETEXT
280
    1
  9
$XCLIPFRAME
290
    0
  9
$HALOGAP
280
    0
  9
$OBSCOLOR
 70
  257
  9
$OBSLTYPE
280
    0
  9
$INTERSECTIONDISPLAY
280
    0
  9
$INTERSECTIONCOLOR
 70
  257
  9
$DIMASSOC
280
    1
  9
$PROJECTNAME
  1

  9
$CAMERADISPLAY
290
    0
  9
$LENSLENGTH
 40
50
  9
$CAMERAHEIGHT
 40
0
  9
$STEPSPERSEC
 40
2
  9
$STEPSIZE
 40
50
  9
$3DDWFPREC
 40
2
  9
$PSOLWIDTH
 40
5
  9
$PSOLHEIGHT
 40
80
  9
$LOFTANG1
 40
1.570796326794897
  9
$LOFTANG2
 40
1.570796326794897
  9
$LOFTMAG1
 40
0
  9
$LOFTMAG2
 40
0
  9
$LOFTPARAM
 70
    7
  9
$LOFTNORMALS
280
    1
  9
$LATITUDE
 40
1
  9
$LONGITUDE
 40
1
  9
$NORTHDIRECTION
 40
0
  9
$TIMEZONE
 70
-8000
  9
$LIGHTGLYPHDISPLAY
280
    1
  9
$TILEMODELIGHTSYNCH
280
    1
  9
$SOLIDHIST
280
    1
  9
$SHOWHIST
280
    1
  9
$DWFFRAME
280
    2
  9
$DGNFRAME
280
    0
  9
$REALWORLDSCALE
290
    1
  9
$INTERFERECOLOR
 62
    1
  9
$CSHADOW
280
    0
  9
$SHADOWPLANELOCATION
 40
0
  0
ENDSEC
  0
SECTION
  2
CLASSES
  0
ENDSEC
  0
SECTION
  2
TABLES
  0
TABLE
  2
VPORT
  5
8
330
0
100
AcDbSymbolTable
 70
    1
  0
VPORT
  5
31
330
2
100
AcDbSymbolTableRecord
100
AcDbViewportTableRecord
  2
*ACTIVE
 70
    0
 10
0
 20
0
 11
1
 21
1
 12
97.17447669388979
 22
4.397800511820948
 13
0
 23
0
 14
10
 24
10
 15
10
 25
10
 16
0
 26
0
 36
1
 17
0
 27
0
 37
0
 40
143.4359551547755
 41
1.685141509433962
 42
50
 43
0
 44
0
 50
0
 51
0
 71
    0
 72
  100
 73
    1
 74
    3
 75
    0
 76
    1
 77
    0
 78
    0
281
    0
 65
    1
110
0
120
0
130
0
111
1
121
0
131
0
112
0
122
1
132
0
 79
    0
146
0
348
10020
 60
    7
 61
    5
292
1
282
    1
141
0
142
0
 63
  250
421
3358443
  0
ENDTAB
  0
TABLE
  2
LTYPE
  5
5
330
0
100
AcDbSymbolTable
 70
    4
  0
LTYPE
  5
14
330
5
100
AcDbSymbolTableRecord
100
AcDbLinetypeTableRecord
  2
ByBlock
 70
    0
  3

 72
   65
 73
    0
 40
0
  0
LTYPE
  5
15
330
5
100
AcDbSymbolTableRecord
100
AcDbLinetypeTableRecord
  2
ByLayer
 70
    0
  3

 72
   65
 73
    0
 40
0
  0
LTYPE
  5
16
330
5
100
AcDbSymbolTableRecord
100
AcDbLinetypeTableRecord
  2
Continuous
 70
    0
  3
Solid line
 72
   65
 73
    0
 40
0
  0
LTYPE
  5
32
330
5
100
AcDbSymbolTableRecord
100
AcDbLinetypeTableRecord
  2
DOT
 70
    0
  3
Dot . . . . . . . . . . . . . . . . . . . . . .
 72
   65
 73
    2
 40
6.35
 49
0
 74
    0
 49
-6.35
 74
    0
  0
LTYPE
  5
33
330
5
100
AcDbSymbolTableRecord
100
AcDbLinetypeTableRecord
  2
DOTTINY
 70
    0
  3
Dot (.15x) .....................................
 72
   65
 73
    2
 40
0.9525
 49
0
 74
    0
 49
-0.9525
 74
    0
  0
LTYPE
  5
34
330
5
100
AcDbSymbolTableRecord
100
AcDbLinetypeTableRecord
  2
DOT2
 70
    0
  3
Dot (.5x) .....................................
 72
   65
 73
    2
 40
3.175
 49
0
 74
    0
 49
-3.175
 74
    0
  0
LTYPE
  5
35
330
5
100
AcDbSymbolTableRecord
100
AcDbLinetypeTableRecord
  2
DOTX2
 70
    0
  3
Dot (2x) .  .  .  .  .  .  .  .  .  .  .  .  .
 72
   65
 73
    2
 40
12.7
 49
0
 74
    0
 49
-12.7
 74
    0
  0
LTYPE
  5
36
330
5
100
AcDbSymbolTableRecord
100
AcDbLinetypeTableRecord
  2
DASHED
 70
    0
  3
Dashed _ _ _ _ _ _ _ _ _ _ _ _ _ _ _ _ _
 72
   65
 73
    2
 40
19.05
 49
12.7
 74
    0
 49
-6.35
 74
    0
  0
LTYPE
  5
37
330
5
100
AcDbSymbolTableRecord
100
AcDbLinetypeTableRecord
  2
DASHEDTINY
 70
    0
  3
Dashed (.15x) _ _ _ _ _ _ _ _ _ _ _ _ _ _ _ _ _
 72
   65
 73
    2
 40
2.8575
 49
1.905
 74
    0
 49
-0.9525
 74
    0
  0
LTYPE
  5
38
330
5
100
AcDbSymbolTableRecord
100
AcDbLinetypeTableRecord
  2
DASHED2
 70
    0
  3
Dashed (.5x) _ _ _ _ _ _ _ _ _ _ _ _ _ _ _ _ _
 72
   65
 73
    2
 40
9.524999999999999
 49
6.35
 74
    0
 49
-3.175
 74
    0
  0
LTYPE
  5
39
330
5
100
AcDbSymbolTableRecord
100
AcDbLinetypeTableRecord
  2
DASHEDX2
 70
    0
  3
Dashed (2x) ____  ____  ____  ____  ____  ___
 72
   65
 73
    2
 40
38.09999999999999
 49
25.4
 74
    0
 49
-12.7
 74
    0
  0
LTYPE
  5
3A
330
5
100
AcDbSymbolTableRecord
100
AcDbLinetypeTableRecord
  2
DASHDOT
 70
    0
  3
Dash dot __ . __ . __ . __ . __ . __ . __ . __
 72
   65
 73
    4
 40
25.4
 49
12.7
 74
    0
 49
-6.35
 74
    0
 49
0
 74
    0
 49
-6.35
 74
    0
  0
LTYPE
  5
3B
330
5
100
AcDbSymbolTableRecord
100
AcDbLinetypeTableRecord
  2
DASHDOTTINY
 70
    0
  3
Dash dot (.15x) _._._._._._._._._._._._._._._.
 72
   65
 73
    4
 40
3.81
 49
1.905
 74
    0
 49
-0.9525
 74
    0
 49
0
 74
    0
 49
-0.9525
 74
    0
  0
LTYPE
  5
3C
330
5
100
AcDbSymbolTableRecord
100
AcDbLinetypeTableRecord
  2
DASHDOT2
 70
    0
  3
Dash dot (.5x) _._._._._._._._._._._._._._._.
 72
   65
 73
    4
 40
12.7
 49
6.35
 74
    0
 49
-3.175
 74
    0
 49
0
 74
    0
 49
-3.175
 74
    0
  0
LTYPE
  5
3D
330
5
100
AcDbSymbolTableRecord
100
AcDbLinetypeTableRecord
  2
DASHDOTX2
 70
    0
  3
Dash dot (2x) ____  .  ____  .  ____  .  ___
 72
   65
 73
    4
 40
50.8
 49
25.4
 74
    0
 49
-12.7
 74
    0
 49
0
 74
    0
 49
-12.7
 74
    0
  0
LTYPE
  5
3E
330
5
100
AcDbSymbolTableRecord
100
AcDbLinetypeTableRecord
  2
DIVIDE
 70
    0
  3
Divide ____ . . ____ . . ____ . . ____ . . ____
 72
   65
 73
    6
 40
31.75
 49
12.7
 74
    0
 49
-6.35
 74
    0
 49
0
 74
    0
 49
-6.35
 74
    0
 49
0
 74
    0
 49
-6.35
 74
    0
  0
LTYPE
  5
3F
330
5
100
AcDbSymbolTableRecord
100
AcDbLinetypeTableRecord
  2
DIVIDETINY
 70
    0
  3
Divide (.15x) __..__..__..__..__..__..__..__.._
 72
   65
 73
    6
 40
4.7625
 49
1.905
 74
    0
 49
-0.9525
 74
    0
 49
0
 74
    0
 49
-0.9525
 74
    0
 49
0
 74
    0
 49
-0.9525
 74
    0
  0
LTYPE
  5
40
330
5
100
AcDbSymbolTableRecord
100
AcDbLinetypeTableRecord
  2
DIVIDE2
 70
    0
  3
Divide (.5x) __..__..__..__..__..__..__..__.._
 72
   65
 73
    6
 40
15.875
 49
6.35
 74
    0
 49
-3.175
 74
    0
 49
0
 74
    0
 49
-3.175
 74
    0
 49
0
 74
    0
 49
-3.175
 74
    0
  0
LTYPE
  5
41
330
5
100
AcDbSymbolTableRecord
100
AcDbLinetypeTableRecord
  2
DIVIDEX2
 70
    0
  3
Divide (2x) ________  .  .  ________  .  .  _
 72
   65
 73
    6
 40
63.5
 49
25.4
 74
    0
 49
-12.7
 74
    0
 49
0
 74
    0
 49
-12.7
 74
    0
 49
0
 74
    0
 49
-12.7
 74
    0
  0
LTYPE
  5
42
330
5
100
AcDbSymbolTableRecord
100
AcDbLinetypeTableRecord
  2
BORDER
 70
    0
  3
Border __ __ . __ __ . __ __ . __ __ . __ __ .
 72
   65
 73
    6
 40
44.45
 49
12.7
 74
    0
 49
-6.35
 74
    0
 49
12.7
 74
    0
 49
-6.35
 74
    0
 49
0
 74
    0
 49
-6.35
 74
    0
  0
LTYPE
  5
43
330
5
100
AcDbSymbolTableRecord
100
AcDbLinetypeTableRecord
  2
BORDERTINY
 70
    0
  3
Border (.15x) __.__.__.__.__.__.__.__.__.__.__.
 72
   65
 73
    6
 40
6.6675
 49
1.905
 74
    0
 49
-0.9525
 74
    0
 49
1.905
 74
    0
 49
-0.9525
 74
    0
 49
0
 74
    0
 49
-0.9525
 74
    0
  0
LTYPE
  5
44
330
5
100
AcDbSymbolTableRecord
100
AcDbLinetypeTableRecord
  2
BORDER2
 70
    0
  3
Border (.5x) __.__.__.__.__.__.__.__.__.__.__.
 72
   65
 73
    6
 40
22.225
 49
6.35
 74
    0
 49
-3.175
 74
    0
 49
6.35
 74
    0
 49
-3.175
 74
    0
 49
0
 74
    0
 49
-3.175
 74
    0
  0
LTYPE
  5
45
330
5
100
AcDbSymbolTableRecord
100
AcDbLinetypeTableRecord
  2
BORDERX2
 70
    0
  3
Border (2x) ____  ____  .  ____  ____  .  ___
 72
   65
 73
    6
 40
88.89999999999999
 49
25.4
 74
    0
 49
-12.7
 74
    0
 49
25.4
 74
    0
 49
-12.7
 74
    0
 49
0
 74
    0
 49
-12.7
 74
    0
  0
LTYPE
  5
46
330
5
100
AcDbSymbolTableRecord
100
AcDbLinetypeTableRecord
  2
CENTER
 70
    0
  3
Center ____ _ ____ _ ____ _ ____ _ ____ _ ____
 72
   65
 73
    4
 40
50.8
 49
31.75
 74
    0
 49
-6.35
 74
    0
 49
6.35
 74
    0
 49
-6.35
 74
    0
  0
LTYPE
  5
47
330
5
100
AcDbSymbolTableRecord
100
AcDbLinetypeTableRecord
  2
CENTERTINY
 70
    0
  3
Center (.15x) ___ _ ___ _ ___ _ ___ _ ___ _ ___
 72
   65
 73
    4
 40
7.62
 49
4.7625
 74
    0
 49
-0.9525
 74
    0
 49
0.9525
 74
    0
 49
-0.9525
 74
    0
  0
LTYPE
  5
48
330
5
100
AcDbSymbolTableRecord
100
AcDbLinetypeTableRecord
  2
CENTER2
 70
    0
  3
Center (.5x) ___ _ ___ _ ___ _ ___ _ ___ _ ___
 72
   65
 73
    4
 40
28.575
 49
19.05
 74
    0
 49
-3.175
 74
    0
 49
3.175
 74
    0
 49
-3.175
 74
    0
  0
LTYPE
  5
49
330
5
100
AcDbSymbolTableRecord
100
AcDbLinetypeTableRecord
  2
CENTERX2
 70
    0
  3
Center (2x) ________  __  ________  __  _____
 72
   65
 73
    4
 40
101.6
 49
63.5
 74
    0
 49
-12.7
 74
    0
 49
12.7
 74
    0
 49
-12.7
 74
    0
  0
ENDTAB
  0
TABLE
  2
LAYER
  5
2
330
0
100
AcDbSymbolTable
 70
    1
  0
LAYER
  5
10
330
2
100
AcDbSymbolTableRecord
100
AcDbLayerTableRecord
  2
0
 70
    0
 62
    7
  6
CONTINUOUS
370
   -3
390
F
  0
ENDTAB
  0
TABLE
  2
STYLE
  5
3
330
0
100
AcDbSymbolTable
 70
    3
  0
STYLE
  5
4A
330
2
100
AcDbSymbolTableRecord
100
AcDbTextStyleTableRecord
  2
Standard
 70
    0
 40
0
 41
1
 50
0
 71
    0
 42
1
  3
txt
  4

  0
ENDTAB
  0
TABLE
  2
VIEW
  5
6
330
0
100
AcDbSymbolTable
 70
    0
  0
ENDTAB
  0
TABLE
  2
UCS
  5
7
330
0
100
AcDbSymbolTable
 70
    0
  0
ENDTAB
  0
TABLE
  2
APPID
  5
9
330
0
100
AcDbSymbolTable
 70
    1
  0
APPID
  5
12
330
9
100
AcDbSymbolTableRecord
100
AcDbRegAppTableRecord
  2
ACAD
 70
    0
  0
APPID
  5
4B
330
9
100
AcDbSymbolTableRecord
100
AcDbRegAppTableRecord
  2
LibreCad
 70
    0
  0
ENDTAB
  0
TABLE
  2
DIMSTYLE
  5
A
330
0
100
AcDbSymbolTable
 70
    1
100
AcDbDimStyleTable
 71
    1
  0
DIMSTYLE
105
4C
330
A
100
AcDbSymbolTableRecord
100
AcDbDimStyleTableRecord
  2
Standard
 70
    0
 40
2.5
 41
2.5
 42
0.625
 43
0.38
 44
1.25
 45
0
 46
0
 47
0
 48
0
 49
1
140
2.5
141
0.09
142
0
143
25.4
144
1
145
0
146
1
147
0.625
148
0
 71
    0
 72
    0
 73
    0
 74
    1
 75
    0
 76
    0
 77
    0
 78
    8
 79
    0
170
    0
171
    2
172
    0
173
    0
174
    0
175
    0
176
    0
177
    0
178
    0
179
    0
271
    2
272
    4
273
    2
274
    2
275
    0
276
    0
277
    2
278
   44
279
    0
280
    0
281
    0
282
    0
283
    1
284
    0
285
    0
286
    0
288
    0
289
    3
340
STANDARD
341

371
   -2
372
   -2
  0
ENDTAB
  0
TABLE
  2
BLOCK_RECORD
  5
1
330
0
100
AcDbSymbolTable
 70
    2
  0
BLOCK_RECORD
  5
1F
330
1
100
AcDbSymbolTableRecord
100
AcDbBlockTableRecord
  2
*Model_Space
 70
    0
280
    1
281
    0
  0
BLOCK_RECORD
  5
1E
330
1
100
AcDbSymbolTableRecord
100
AcDbBlockTableRecord
  2
*Paper_Space
 70
    0
280
    1
281
    0
  0
ENDTAB
  0
ENDSEC
  0
SECTION
  2
BLOCKS
  0
BLOCK
  5
20
330
1F
100
AcDbEntity
  8
0
100
AcDbBlockBegin
  2
*Model_Space
 70
    0
 10
0
 20
0
 30
0
  3
*Model_Space
  1

  0
ENDBLK
  5
21
330
1F
100
AcDbEntity
  8
0
100
AcDbBlockEnd
  0
BLOCK
  5
1C
330
1B
100
AcDbEntity
  8
0
100
AcDbBlockBegin
  2
*Paper_Space
 70
    0
 10
0
 20
0
 30
0
  3
*Paper_Space
  1

  0
ENDBLK
  5
1D
330
1F
100
AcDbEntity
  8
0
100
AcDbBlockEnd
  0
ENDSEC
  0
SECTION
  2
ENTITIES
  0
LWPOLYLINE
  5
4D
100
AcDbEntity
  8
0
  6
ByLayer
 62
  256
370
   -1
100
AcDbPolyline
 90
    8
 70
    1
 43
0
 10
-37.57449943533241
 20
-70.70949276564963
 10
-31.57449943533241
 20
-70.70949276564963
 42
-0.414213562373095
 10
-31.07449943533241
 20
-71.20949276564963
 10
-31.0744994353324
 20
-86.20949276564963
 42
-0.414213562373068
 10
-31.57449943533241
 20
-86.70949276564963
 10
-37.57449943533241
 20
-86.70949276564963
 42
-0.4142135623731075
 10
-38.07449943533238
 20
-86.20949276564963
 10
-38.0744994353324
 20
-71.20949276564963
 42
-0.4142135623730909
  0
LWPOLYLINE
  5
4E
100
AcDbEntity
  8
0
  6
ByLayer
 62
  256
370
   -1
100
AcDbPolyline
 90
    8
 70
    1
 43
0
 10
-54.95049943533242
 20
-71.20949276564966
 10
-54.95049943533242
 20
-86.20949276564963
 42
-0.4142135623730784
 10
-55.45049943533242
 20
-86.70949276564963
 10
-61.45049943533241
 20
-86.70949276564963
 42
-0.4142135623730742
 10
-61.9504994353324
 20
-86.20949276564963
 10
-61.95049943533241
 20
-71.20949276564967
 42
-0.414213562373095
 10
-61.45049943533241
 20
-70.70949276564967
 10
-55.4504994353324
 20
-70.70949276564966
 42
-0.4142135623731034
  0
LWPOLYLINE
  5
4F
100
AcDbEntity
  8
0
  6
ByLayer
 62
  256
370
   -1
100
AcDbPolyline
 90
    8
 70
    1
 43
0
 10
-39.51249943533242
 20
-71.20949276564963
 10
-39.51249943533242
 20
-84.20949276564961
 42
-0.4142135623731117
 10
-40.01249943533242
 20
-84.70949276564964
 10
-53.01249943533242
 20
-84.70949276564964
 42
-0.4142135623731159
 10
-53.5124994353324
 20
-84.20949276564961
 10
-53.5124994353324
 20
-71.20949276564963
 42
-0.4142135623731034
 10
-53.01249943533242
 20
-70.70949276564963
 10
-40.01249943533242
 20
-70.70949276564963
 42
-0.414213562373095
  0
LWPOLYLINE
  5
50
100
AcDbEntity
  8
0
  6
ByLayer
 62
  256
370
   -1
100
AcDbPolyline
 90
   36
 70
    1
 43
0
 10
-67.94374935839899
 20
-12.05949154769451
 10
-67.94374943533245
 20
-105.7281491350032
 42
0.2427509552803247
 10
-67.51282327263925
 20
-106.5634342814218
 42
-0.2427509513355084
 10
-66.88219961991751
 20
-107.7858027660241
 10
-66.88219959776137
 20
-109.2531517059652
 42
0.4142135580099905
 10
-64.88219954020806
 20
-111.253151733707
 10
12.7678004673313
 20
-111.25315173335
 42
0.4142135623732587
 10
14.76780052469749
 20
-109.2531516759849
 10
14.76780052469831
 20
-107.7531661809867
 42
-0.4142136223906476
 10
16.26780083206741
 20
-106.2531661809868
 10
133.5947007171588
 20
-106.2531902227627
 42
-0.414213502355398
 10
135.0947004097897
 20
-107.753190222762
 10
135.0947004097904
 20
-109.2531515992723
 42
0.4142135623731075
 10
137.0947004673354
 20
-111.2531516568153
 10
214.7447004673429
 20
-111.2531516564584
 42
0.4142135623717464
 10
216.744700524699
 20
-109.2531515990931
 10
216.7447005247004
 20
-107.7858610818254
 42
-0.2427509841705786
 10
217.3753243108194
 20
-106.5634924799962
 42
0.2427509841705512
 10
217.8062505646673
 20
-105.7282072687463
 10
217.8062506416009
 20
-12.05943387997758
 42
0.2427509837356686
 10
217.3753243891251
 20
-11.22414866970351
 42
-0.2427509837356826
 10
216.7447006050141
 20
-10.00178006930245
 10
216.744700622036
 20
-8.534488966783545
 42
0.414213562431169
 10
214.7447005344721
 20
-6.534488939220882
 10
137.094700564672
 20
-6.534488939218866
 42
0.4142135623732389
 10
135.094700507305
 20
-8.534488996584864
 10
135.0947004950512
 20
-10.03448743799175
 42
-0.4142136272055003
 10
133.5947001630236
 20
-11.53448743799171
 10
16.26151437967838
 20
-11.53446146609193
 42
-0.4129866289514638
 10
14.76780060495822
 20
-10.0344746383592
 10
14.76780062203498
 20
-8.534489043457519
 42
0.4142135623730945
 10
12.76780053447077
 20
-6.534489016291438
 10
-64.8821994353291
 20
-6.534489016291382
 42
0.4142135623732735
 10
-66.88219949269534
 20
-8.534489073656392
 10
-66.88219953960402
 20
-10.0018379142696
 42
-0.2427509517703757
 10
-67.51282319433369
 20
-11.22420640030002
 42
0.242750955715191
  0
LWPOLYLINE
  5
51
100
AcDbEntity
  8
0
  6
ByLayer
 62
  256
370
   -1
100
AcDbPolyline
 90
   11
 70
    1
 43
0
 10
200.5505005646677
 20
-70.70949276564959
 10
214.7812505646677
 20
-70.7094927656496
 42
-0.4142135623731283
 10
215.2812505646677
 20
-71.2094927656496
 10
215.2812505646677
 20
-84.20949276564961
 42
-0.4142135623730784
 10
214.7812505646677
 20
-84.70949276564964
 10
207.0505005646677
 20
-84.7094927656496
 10
207.0505005646677
 20
-86.2094927656496
 42
-0.4142135623730118
 10
206.5505005646677
 20
-86.70949276564963
 10
200.5505005646677
 20
-86.7094927656496
 42
-0.4142135623731034
 10
200.0505005646677
 20
-86.2094927656496
 10
200.0505005646676
 20
-71.20949276564959
 42
-0.4142135623731117
  0
LWPOLYLINE
  5
52
100
AcDbEntity
  8
0
  6
ByLayer
 62
  256
370
   -1
100
AcDbPolyline
 90
    8
 70
    1
 43
0
 10
202.8750005646677
 20
-65.65949276564956
 10
189.8750005646677
 20
-65.65949276564962
 42
-0.4142135623731283
 10
189.3750005646677
 20
-65.15949276564962
 10
189.3750005646677
 20
-52.1594927656496
 42
-0.4142135623730825
 10
189.8750005646677
 20
-51.65949276564962
 10
202.8750005646677
 20
-51.65949276564959
 42
-0.4142135623731367
 10
203.3750005646677
 20
-52.1594927656496
 10
203.3750005646676
 20
-65.15949276564962
 42
-0.4142135623730118
  0
LWPOLYLINE
  5
53
100
AcDbEntity
  8
0
  6
ByLayer
 62
  256
370
   -1
100
AcDbPolyline
 90
   14
 70
    1
 43
0
 10
198.6125005646676
 20
-71.2094927656496
 42
0.4142135623731283
 10
198.1125005646676
 20
-70.7094927656496
 10
175.5875005646677
 20
-70.70949276564963
 42
0.4142135623730784
 10
175.0875005646677
 20
-71.2094927656496
 10
175.0875005646677
 20
-84.20949276564961
 42
0.41421356237312
 10
175.5875005646677
 20
-84.7094927656496
 10
176.1745005646677
 20
-84.7094927656496
 10
176.1745005646677
 20
-86.2094927656496
 42
0.4142135623731367
 10
176.6745005646677
 20
-86.70949276564961
 10
182.6745005646677
 20
-86.70949276564963
 42
0.4142135623730118
 10
183.1745005646677
 20
-86.2094927656496
 10
183.1745005646677
 20
-84.70949276564963
 10
198.1125005646676
 20
-84.70949276564964
 42
0.4142135623730784
 10
198.6125005646676
 20
-84.20949276564961
  0
LWPOLYLINE
  5
54
100
AcDbEntity
  8
0
  6
ByLayer
 62
  256
370
   -1
100
AcDbPolyline
 90
    8
 70
    1
 43
0
 10
211.8130005646677
 20
-50.1594927656496
 10
211.8130005646677
 20
-65.15949276564965
 42
-0.414213562373095
 10
211.3130005646677
 20
-65.65949276564965
 10
205.3130005646677
 20
-65.65949276564962
 42
-0.4142135623730784
 10
204.8130005646677
 20
-65.15949276564965
 10
204.8130005646677
 20
-50.1594927656496
 42
-0.4142135623730825
 10
205.3130005646677
 20
-49.65949276564962
 10
211.3130005646677
 20
-49.65949276564957
 42
-0.4142135623731159
  0
LWPOLYLINE
  5
55
100
AcDbEntity
  8
0
  6
ByLayer
 62
  256
370
   -1
100
AcDbPolyline
 90
    8
 70
    1
 43
0
 10
172.4187505646677
 20
-52.1594927656496
 10
172.4187505646677
 20
-65.15949276564962
 42
-0.4142135623730284
 10
171.9187505646676
 20
-65.65949276564967
 10
158.9187505646676
 20
-65.65949276564962
 42
-0.414213562373095
 10
158.4187505646676
 20
-65.15949276564962
 10
158.4187505646676
 20
-52.1594927656496
 42
-0.414213562373095
 10
158.9187505646676
 20
-51.6594927656496
 10
171.9187505646676
 20
-51.65949276564959
 42
-0.4142135623731367
  0
LWPOLYLINE
  5
56
100
AcDbEntity
  8
0
  6
ByLayer
 62
  256
370
   -1
100
AcDbPolyline
 90
    8
 70
    1
 43
0
 10
180.9370005646676
 20
-65.15949276564952
 10
180.9370005646677
 20
-50.15949276564961
 42
-0.4142135623730076
 10
181.4370005646677
 20
-49.6594927656496
 10
187.4370005646677
 20
-49.6594927656496
 42
-0.4142135623731367
 10
187.9370005646678
 20
-50.15949276564961
 10
187.9370005646677
 20
-65.15949276564945
 42
-0.4142135623730784
 10
187.4370005646677
 20
-65.65949276564953
 10
181.4370005646677
 20
-65.65949276564953
 42
-0.41421356237312
  0
LWPOLYLINE
  5
57
100
AcDbEntity
  8
0
  6
ByLayer
 62
  256
370
   -1
100
AcDbPolyline
 90
    8
 70
    1
 43
0
 10
201.7812505646677
 20
-13.55949276564958
 10
214.7812505646677
 20
-13.5594927656496
 42
-0.4142135623731294
 10
215.2812505646677
 20
-14.0594927656496
 10
215.2812505646677
 20
-27.0594927656496
 42
-0.4142135623730825
 10
214.7812505646677
 20
-27.55949276564958
 10
201.7812505646677
 20
-27.55949276564959
 42
-0.4142135623731179
 10
201.2812505646677
 20
-27.05949276564961
 10
201.2812505646677
 20
-14.0594927656496
 42
-0.4142135623730087
  0
LWPOLYLINE
  5
58
100
AcDbEntity
  8
0
  6
ByLayer
 62
  256
370
   -1
100
AcDbPolyline
 90
    8
 70
    1
 43
0
 10
210.5187505646677
 20
-33.10949276564961
 10
210.5187505646676
 20
-46.10949276564961
 42
-0.4142135623730243
 10
210.0187505646676
 20
-46.6094927656496
 10
197.0187505646676
 20
-46.60949276564962
 42
-0.4142135623731367
 10
196.5187505646676
 20
-46.10949276564961
 10
196.5187505646676
 20
-33.10949276564961
 42
-0.4142135623730825
 10
197.0187505646676
 20
-32.60949276564963
 10
210.0187505646676
 20
-32.60949276564957
 42
-0.4142135623730784
  0
LWPOLYLINE
  5
59
100
AcDbEntity
  8
0
  6
ByLayer
 62
  256
370
   -1
100
AcDbPolyline
 90
    8
 70
    1
 43
0
 10
-65.41874943533242
 20
-27.05949276564962
 10
-65.41874943533242
 20
-14.05949276564962
 42
-0.4142135623730961
 10
-64.91874943533242
 20
-13.55949276564962
 10
-51.91874943533242
 20
-13.55949276564962
 42
-0.4142135623730961
 10
-51.41874943533242
 20
-14.05949276564962
 10
-51.41874943533242
 20
-27.05949276564962
 42
-0.4142135623730929
 10
-51.91874943533242
 20
-27.55949276564962
 10
-64.91874943533242
 20
-27.55949276564962
 42
-0.4142135623730971
  0
LWPOLYLINE
  5
5A
100
AcDbEntity
  8
0
  6
ByLayer
 62
  256
370
   -1
100
AcDbPolyline
 90
    8
 70
    1
 43
0
 10
-46.36874943533242
 20
-27.05949276564962
 10
-46.36874943533242
 20
-14.05949276564962
 42
-0.4142135623730898
 10
-45.86874943533242
 20
-13.55949276564963
 10
-32.86874943533241
 20
-13.55949276564962
 42
-0.4142135623730961
 10
-32.36874943533241
 20
-14.05949276564962
 10
-32.3687494353324
 20
-27.05949276564962
 42
-0.4142135623730784
 10
-32.86874943533241
 20
-27.55949276564962
 10
-45.86874943533242
 20
-27.55949276564962
 42
-0.414213562373095
  0
LWPOLYLINE
  5
5B
100
AcDbEntity
  8
0
  6
ByLayer
 62
  256
370
   -1
100
AcDbPolyline
 90
    8
 70
    1
 43
0
 10
-27.31874943533241
 20
-27.05949276564962
 10
-27.31874943533241
 20
-14.05949276564962
 42
-0.414213562373095
 10
-26.81874943533241
 20
-13.55949276564962
 10
-13.81874943533241
 20
-13.55949276564962
 42
-0.4142135623730992
 10
-13.31874943533241
 20
-14.05949276564962
 10
-13.31874943533241
 20
-27.05949276564962
 42
-0.4142135623730929
 10
-13.81874943533241
 20
-27.55949276564963
 10
-26.81874943533241
 20
-27.55949276564962
 42
-0.414213562373095
  0
LWPOLYLINE
  5
5C
100
AcDbEntity
  8
0
  6
ByLayer
 62
  256
370
   -1
100
AcDbPolyline
 90
    8
 70
    1
 43
0
 10
-8.268749435332403
 20
-27.05949276564962
 10
-8.26874943533241
 20
-14.05949276564962
 42
-0.4142135623730909
 10
-7.768749435332403
 20
-13.55949276564961
 10
5.231250564667596
 20
-13.55949276564962
 42
-0.4142135623730976
 10
5.731250564667595
 20
-14.05949276564962
 10
5.731250564667595
 20
-27.05949276564962
 42
-0.4142135623730935
 10
5.231250564667596
 20
-27.55949276564962
 10
-7.768749435332403
 20
-27.55949276564962
 42
-0.414213562373095
  0
LWPOLYLINE
  5
5D
100
AcDbEntity
  8
0
  6
ByLayer
 62
  256
370
   -1
100
AcDbPolyline
 90
    8
 70
    1
 43
0
 10
10.78125056466759
 20
-27.05949276564962
 10
10.78125056466759
 20
-14.05949276564962
 42
-0.4142135623730909
 10
11.28125056466759
 20
-13.55949276564962
 10
24.2812505646676
 20
-13.55949276564961
 42
-0.4142135623730929
 10
24.7812505646676
 20
-14.05949276564962
 10
24.78125056466761
 20
-27.05949276564962
 42
-0.4142135623730825
 10
24.2812505646676
 20
-27.55949276564962
 10
11.28125056466759
 20
-27.55949276564962
 42
-0.414213562373095
  0
LWPOLYLINE
  5
5E
100
AcDbEntity
  8
0
  6
ByLayer
 62
  256
370
   -1
100
AcDbPolyline
 90
    8
 70
    1
 43
0
 10
29.8312505646676
 20
-27.05949276564962
 10
29.83125056466761
 20
-14.05949276564962
 42
-0.4142135623730919
 10
30.3312505646676
 20
-13.55949276564963
 10
43.33125056466761
 20
-13.55949276564961
 42
-0.4142135623731023
 10
43.83125056466761
 20
-14.05949276564962
 10
43.83125056466761
 20
-27.05949276564962
 42
-0.4142135623730825
 10
43.33125056466761
 20
-27.55949276564963
 10
30.3312505646676
 20
-27.55949276564962
 42
-0.4142135623730909
  0
LWPOLYLINE
  5
5F
100
AcDbEntity
  8
0
  6
ByLayer
 62
  256
370
   -1
100
AcDbPolyline
 90
    8
 70
    1
 43
0
 10
48.8812505646676
 20
-27.05949276564962
 10
48.88125056466761
 20
-14.05949276564962
 42
-0.4142135623730919
 10
49.38125056466761
 20
-13.5594927656496
 10
62.3812505646676
 20
-13.5594927656496
 42
-0.4142135623731086
 10
62.88125056466762
 20
-14.05949276564961
 10
62.88125056466762
 20
-27.05949276564962
 42
-0.4142135623730929
 10
62.3812505646676
 20
-27.55949276564963
 10
49.38125056466761
 20
-27.55949276564962
 42
-0.4142135623730929
  0
LWPOLYLINE
  5
60
100
AcDbEntity
  8
0
  6
ByLayer
 62
  256
370
   -1
100
AcDbPolyline
 90
    8
 70
    1
 43
0
 10
67.93125056466761
 20
-27.05949276564962
 10
67.93125056466762
 20
-14.05949276564961
 42
-0.4142135623731003
 10
68.43125056466762
 20
-13.5594927656496
 10
81.43125056466761
 20
-13.5594927656496
 42
-0.414213562373094
 10
81.93125056466762
 20
-14.05949276564961
 10
81.93125056466762
 20
-27.05949276564962
 42
-0.4142135623730867
 10
81.43125056466761
 20
-27.55949276564962
 10
68.43125056466762
 20
-27.55949276564962
 42
-0.4142135623731159
  0
LWPOLYLINE
  5
61
100
AcDbEntity
  8
0
  6
ByLayer
 62
  256
370
   -1
100
AcDbPolyline
 90
    8
 70
    1
 43
0
 10
86.98125056466763
 20
-27.05949276564962
 10
86.98125056466763
 20
-14.05949276564961
 42
-0.4142135623730773
 10
87.48125056466763
 20
-13.55949276564961
 10
100.4812505646676
 20
-13.5594927656496
 42
-0.4142135623730867
 10
100.9812505646676
 20
-14.05949276564961
 10
100.9812505646676
 20
-27.05949276564961
 42
-0.4142135623731075
 10
100.4812505646676
 20
-27.5594927656496
 10
87.48125056466763
 20
-27.55949276564962
 42
-0.4142135623730638
  0
LWPOLYLINE
  5
62
100
AcDbEntity
  8
0
  6
ByLayer
 62
  256
370
   -1
100
AcDbPolyline
 90
    8
 70
    1
 43
0
 10
106.0312505646676
 20
-27.05949276564961
 10
106.0312505646676
 20
-14.05949276564961
 42
-0.4142135623731003
 10
106.5312505646676
 20
-13.5594927656496
 10
119.5312505646676
 20
-13.5594927656496
 42
-0.4142135623731003
 10
120.0312505646676
 20
-14.05949276564961
 10
120.0312505646676
 20
-27.05949276564961
 42
-0.4142135623731117
 10
119.5312505646676
 20
-27.55949276564961
 10
106.5312505646676
 20
-27.55949276564962
 42
-0.4142135623731013
  0
LWPOLYLINE
  5
63
100
AcDbEntity
  8
0
  6
ByLayer
 62
  256
370
   -1
100
AcDbPolyline
 90
    8
 70
    1
 43
0
 10
125.0812505646676
 20
-27.05949276564961
 10
125.0812505646676
 20
-14.05949276564961
 42
-0.4142135623730992
 10
125.5812505646676
 20
-13.5594927656496
 10
138.5812505646676
 20
-13.5594927656496
 42
-0.4142135623731003
 10
139.0812505646676
 20
-14.05949276564961
 10
139.0812505646676
 20
-27.05949276564961
 42
-0.4142135623731034
 10
138.5812505646676
 20
-27.55949276564957
 10
125.5812505646676
 20
-27.55949276564961
 42
-0.414213562373095
  0
LWPOLYLINE
  5
64
100
AcDbEntity
  8
0
  6
ByLayer
 62
  256
370
   -1
100
AcDbPolyline
 90
    8
 70
    1
 43
0
 10
144.1312505646676
 20
-27.05949276564961
 10
144.1312505646676
 20
-14.05949276564961
 42
-0.4142135623731023
 10
144.6312505646676
 20
-13.5594927656496
 10
157.6312505646676
 20
-13.5594927656496
 42
-0.4142135623731003
 10
158.1312505646676
 20
-14.05949276564961
 10
158.1312505646676
 20
-27.05949276564961
 42
-0.414213562373095
 10
157.6312505646676
 20
-27.55949276564961
 10
144.6312505646676
 20
-27.55949276564961
 42
-0.4142135623730971
  0
LWPOLYLINE
  5
65
100
AcDbEntity
  8
0
  6
ByLayer
 62
  256
370
   -1
100
AcDbPolyline
 90
    8
 70
    1
 43
0
 10
163.1812505646676
 20
-27.05949276564961
 10
163.1812505646676
 20
-14.05949276564961
 42
-0.4142135623730857
 10
163.6812505646676
 20
-13.55949276564963
 10
176.6812505646677
 20
-13.5594927656496
 42
-0.4142135623731294
 10
177.1812505646677
 20
-14.0594927656496
 10
177.1812505646677
 20
-27.05949276564961
 42
-0.4142135623730784
 10
176.6812505646677
 20
-27.55949276564958
 10
163.6812505646676
 20
-27.55949276564961
 42
-0.4142135623731325
  0
LWPOLYLINE
  5
66
100
AcDbEntity
  8
0
  6
ByLayer
 62
  256
370
   -1
100
AcDbPolyline
 90
    8
 70
    1
 43
0
 10
196.2312505646677
 20
-14.0594927656496
 42
0.4142135623731294
 10
195.7312505646677
 20
-13.5594927656496
 10
182.7312505646677
 20
-13.55949276564958
 42
0.4142135623730087
 10
182.2312505646677
 20
-14.0594927656496
 10
182.2312505646677
 20
-27.05949276564961
 42
0.414213562373095
 10
182.7312505646677
 20
-27.5594927656496
 10
195.7312505646677
 20
-27.55949276564958
 42
0.4142135623730784
 10
196.2312505646677
 20
-27.05949276564961
  0
LWPOLYLINE
  5
67
100
AcDbEntity
  8
0
  6
ByLayer
 62
  256
370
   -1
100
AcDbPolyline
 90
    8
 70
    1
 43
0
 10
172.7062505646676
 20
-46.10949276564961
 10
172.7062505646677
 20
-33.10949276564961
 42
-0.4142135623730617
 10
173.2062505646677
 20
-32.60949276564961
 10
186.2062505646677
 20
-32.60949276564961
 42
-0.4142135623731325
 10
186.7062505646677
 20
-33.10949276564961
 10
186.7062505646677
 20
-46.10949276564961
 42
-0.4142135623730701
 10
186.2062505646677
 20
-46.60949276564956
 10
173.2062505646677
 20
-46.60949276564963
 42
-0.414213562373145
  0
LWPOLYLINE
  5
68
100
AcDbEntity
  8
0
  6
ByLayer
 62
  256
370
   -1
100
AcDbPolyline
 90
    8
 70
    1
 43
0
 10
153.6562505646676
 20
-46.10949276564961
 10
153.6562505646676
 20
-33.10949276564961
 42
-0.4142135623731242
 10
154.1562505646676
 20
-32.60949276564961
 10
167.1562505646676
 20
-32.60949276564956
 42
-0.41421356237312
 10
167.6562505646676
 20
-33.10949276564961
 10
167.6562505646676
 20
-46.10949276564961
 42
-0.4142135623730034
 10
167.1562505646676
 20
-46.60949276564962
 10
154.1562505646676
 20
-46.60949276564962
 42
-0.4142135623731034
  0
LWPOLYLINE
  5
69
100
AcDbEntity
  8
0
  6
ByLayer
 62
  256
370
   -1
100
AcDbPolyline
 90
    8
 70
    1
 43
0
 10
134.6062505646676
 20
-46.10949276564961
 10
134.6062505646676
 20
-33.10949276564961
 42
-0.4142135623730909
 10
135.1062505646676
 20
-32.60949276564963
 10
148.1062505646676
 20
-32.6094927656496
 42
-0.4142135623731034
 10
148.6062505646677
 20
-33.10949276564961
 10
148.6062505646677
 20
-46.10949276564961
 42
-0.4142135623731159
 10
148.1062505646676
 20
-46.60949276564959
 10
135.1062505646676
 20
-46.60949276564962
 42
-0.4142135623731034
  0
LWPOLYLINE
  5
6A
100
AcDbEntity
  8
0
  6
ByLayer
 62
  256
370
   -1
100
AcDbPolyline
 90
    8
 70
    1
 43
0
 10
115.5562505646676
 20
-46.10949276564961
 10
115.5562505646676
 20
-33.10949276564961
 42
-0.4142135623731034
 10
116.0562505646676
 20
-32.60949276564963
 10
129.0562505646676
 20
-32.60949276564959
 42
-0.41421356237312
 10
129.5562505646677
 20
-33.10949276564961
 10
129.5562505646676
 20
-46.10949276564961
 42
-0.4142135623730992
 10
129.0562505646676
 20
-46.60949276564956
 10
116.0562505646676
 20
-46.60949276564962
 42
-0.4142135623731034
  0
LWPOLYLINE
  5
6B
100
AcDbEntity
  8
0
  6
ByLayer
 62
  256
370
   -1
100
AcDbPolyline
 90
    8
 70
    1
 43
0
 10
139.3687505646676
 20
-65.15949276564962
 10
139.3687505646676
 20
-52.1594927656496
 42
-0.4142135623730992
 10
139.8687505646676
 20
-51.65949276564966
 10
152.8687505646676
 20
-51.6594927656496
 42
-0.414213562373095
 10
153.3687505646676
 20
-52.1594927656496
 10
153.3687505646676
 20
-65.15949276564962
 42
-0.4142135623730867
 10
152.8687505646676
 20
-65.65949276564962
 10
139.8687505646676
 20
-65.65949276564962
 42
-0.414213562373095
  0
LWPOLYLINE
  5
6C
100
AcDbEntity
  8
0
  6
ByLayer
 62
  256
370
   -1
100
AcDbPolyline
 90
    8
 70
    1
 43
0
 10
120.3187505646676
 20
-65.15949276564962
 10
120.3187505646676
 20
-52.1594927656496
 42
-0.414213562373095
 10
120.8187505646676
 20
-51.6594927656496
 10
133.8187505646676
 20
-51.6594927656496
 42
-0.414213562373095
 10
134.3187505646676
 20
-52.1594927656496
 10
134.3187505646676
 20
-65.15949276564962
 42
-0.4142135623730867
 10
133.8187505646676
 20
-65.65949276564962
 10
120.8187505646676
 20
-65.65949276564962
 42
-0.414213562373095
  0
LWPOLYLINE
  5
6D
100
AcDbEntity
  8
0
  6
ByLayer
 62
  256
370
   -1
100
AcDbPolyline
 90
    8
 70
    1
 43
0
 10
101.2687505646676
 20
-65.15949276564962
 10
101.2687505646676
 20
-52.15949276564962
 42
-0.4142135623731117
 10
101.7687505646676
 20
-51.65949276564962
 10
114.7687505646676
 20
-51.6594927656496
 42
-0.414213562373095
 10
115.2687505646676
 20
-52.1594927656496
 10
115.2687505646676
 20
-65.15949276564962
 42
-0.414213562373095
 10
114.7687505646676
 20
-65.65949276564962
 10
101.7687505646676
 20
-65.65949276564963
 42
-0.4142135623731034
  0
LWPOLYLINE
  5
6E
100
AcDbEntity
  8
0
  6
ByLayer
 62
  256
370
   -1
100
AcDbPolyline
 90
    8
 70
    1
 43
0
 10
96.50625056466762
 20
-46.10949276564961
 10
96.50625056466762
 20
-33.10949276564961
 42
-0.4142135623731034
 10
97.00625056466762
 20
-32.60949276564963
 10
110.0062505646676
 20
-32.60949276564959
 42
-0.4142135623731034
 10
110.5062505646676
 20
-33.10949276564961
 10
110.5062505646676
 20
-46.10949276564961
 42
-0.4142135623731034
 10
110.0062505646676
 20
-46.60949276564959
 10
97.00625056466762
 20
-46.60949276564962
 42
-0.4142135623731034
  0
LWPOLYLINE
  5
6F
100
AcDbEntity
  8
0
  6
ByLayer
 62
  256
370
   -1
100
AcDbPolyline
 90
    8
 70
    1
 43
0
 10
77.45625056466763
 20
-46.10949276564962
 10
77.45625056466763
 20
-33.10949276564961
 42
-0.4142135623730992
 10
77.95625056466763
 20
-32.60949276564961
 10
90.95625056466761
 20
-32.6094927656496
 42
-0.4142135623730867
 10
91.45625056466761
 20
-33.10949276564961
 10
91.45625056466761
 20
-46.10949276564961
 42
-0.4142135623730992
 10
90.95625056466761
 20
-46.60949276564959
 10
77.95625056466763
 20
-46.60949276564962
 42
-0.4142135623731117
  0
LWPOLYLINE
  5
70
100
AcDbEntity
  8
0
  6
ByLayer
 62
  256
370
   -1
100
AcDbPolyline
 90
    8
 70
    1
 43
0
 10
58.4062505646676
 20
-46.10949276564962
 10
58.40625056466763
 20
-33.10949276564961
 42
-0.4142135623730992
 10
58.90625056466762
 20
-32.60949276564961
 10
71.9062505646676
 20
-32.60949276564961
 42
-0.414213562373095
 10
72.4062505646676
 20
-33.10949276564961
 10
72.40625056466762
 20
-46.10949276564962
 42
-0.4142135623730867
 10
71.9062505646676
 20
-46.60949276564962
 10
58.90625056466762
 20
-46.60949276564963
 42
-0.4142135623731034
  0
LWPOLYLINE
  5
71
100
AcDbEntity
  8
0
  6
ByLayer
 62
  256
370
   -1
100
AcDbPolyline
 90
    8
 70
    1
 43
0
 10
39.3562505646676
 20
-46.10949276564962
 10
39.3562505646676
 20
-33.10949276564961
 42
-0.4142135623730909
 10
39.8562505646676
 20
-32.60949276564962
 10
52.85625056466762
 20
-32.60949276564961
 42
-0.4142135623731034
 10
53.35625056466762
 20
-33.10949276564961
 10
53.35625056466763
 20
-46.10949276564962
 42
-0.4142135623730909
 10
52.85625056466762
 20
-46.60949276564961
 10
39.8562505646676
 20
-46.60949276564963
 42
-0.4142135623730909
  0
LWPOLYLINE
  5
72
100
AcDbEntity
  8
0
  6
ByLayer
 62
  256
370
   -1
100
AcDbPolyline
 90
    8
 70
    1
 43
0
 10
20.30625056466759
 20
-46.10949276564962
 10
20.3062505646676
 20
-33.10949276564961
 42
-0.414213562373095
 10
20.8062505646676
 20
-32.60949276564963
 10
33.80625056466761
 20
-32.6094927656496
 42
-0.414213562373095
 10
34.30625056466761
 20
-33.10949276564961
 10
34.30625056466761
 20
-46.10949276564962
 42
-0.414213562373095
 10
33.80625056466761
 20
-46.60949276564963
 10
20.8062505646676
 20
-46.60949276564962
 42
-0.414213562373095
  0
LWPOLYLINE
  5
73
100
AcDbEntity
  8
0
  6
ByLayer
 62
  256
370
   -1
100
AcDbPolyline
 90
    8
 70
    1
 43
0
 10
1.256250564667602
 20
-46.10949276564963
 10
1.256250564667604
 20
-33.10949276564962
 42
-0.4142135623730946
 10
1.756250564667603
 20
-32.60949276564962
 10
14.75625056466761
 20
-32.60949276564961
 42
-0.4142135623730888
 10
15.25625056466762
 20
-33.10949276564962
 10
15.25625056466762
 20
-46.10949276564963
 42
-0.4142135623731013
 10
14.75625056466761
 20
-46.60949276564964
 10
1.756250564667603
 20
-46.60949276564963
 42
-0.4142135623730958
  0
LWPOLYLINE
  5
74
100
AcDbEntity
  8
0
  6
ByLayer
 62
  256
370
   -1
100
AcDbPolyline
 90
    8
 70
    1
 43
0
 10
-17.79374943533241
 20
-46.10949276564963
 10
-17.79374943533241
 20
-33.10949276564962
 42
-0.414213562373095
 10
-17.29374943533241
 20
-32.60949276564962
 10
-4.293749435332401
 20
-32.60949276564962
 42
-0.414213562373095
 10
-3.793749435332401
 20
-33.10949276564962
 10
-3.793749435332399
 20
-46.10949276564963
 42
-0.4142135623730961
 10
-4.293749435332401
 20
-46.60949276564963
 10
-17.29374943533241
 20
-46.60949276564963
 42
-0.414213562373095
  0
LWPOLYLINE
  5
75
100
AcDbEntity
  8
0
  6
ByLayer
 62
  256
370
   -1
100
AcDbPolyline
 90
    8
 70
    1
 43
0
 10
-36.84374943533241
 20
-46.10949276564963
 10
-36.84374943533241
 20
-33.10949276564962
 42
-0.414213562373095
 10
-36.34374943533241
 20
-32.60949276564962
 10
-23.34374943533241
 20
-32.60949276564962
 42
-0.414213562373095
 10
-22.84374943533241
 20
-33.10949276564962
 10
-22.8437494353324
 20
-46.10949276564963
 42
-0.4142135623731013
 10
-23.34374943533241
 20
-46.60949276564964
 10
-36.34374943533241
 20
-46.60949276564963
 42
-0.4142135623730992
  0
LWPOLYLINE
  5
76
100
AcDbEntity
  8
0
  6
ByLayer
 62
  256
370
   -1
100
AcDbPolyline
 90
    8
 70
    1
 43
0
 10
-60.65624943533241
 20
-46.10949276564963
 10
-60.65624943533241
 20
-33.10949276564963
 42
-0.4142135623731034
 10
-60.15624943533241
 20
-32.60949276564961
 10
-47.15624943533241
 20
-32.60949276564961
 42
-0.4142135623731034
 10
-46.65624943533241
 20
-33.10949276564963
 10
-46.65624943533241
 20
-46.10949276564963
 42
-0.4142135623731034
 10
-47.15624943533241
 20
-46.60949276564961
 10
-60.15624943533241
 20
-46.60949276564963
 42
-0.4142135623731034
  0
LWPOLYLINE
  5
77
100
AcDbEntity
  8
0
  6
ByLayer
 62
  256
370
   -1
100
AcDbPolyline
 90
    8
 70
    1
 43
0
 10
-44.7749994353324
 20
-65.65949276564963
 10
-62.53749943533242
 20
-65.65949276564963
 42
-0.414213562373095
 10
-63.03749943533242
 20
-65.15949276564963
 10
-63.03749943533242
 20
-52.15949276564962
 42
-0.414213562373095
 10
-62.53749943533242
 20
-51.65949276564963
 10
-44.7749994353324
 20
-51.65949276564962
 42
-0.4142135623730992
 10
-44.2749994353324
 20
-52.15949276564962
 10
-44.2749994353324
 20
-65.15949276564963
 42
-0.414213562373095
  0
LWPOLYLINE
  5
78
100
AcDbEntity
  8
0
  6
ByLayer
 62
  256
370
   -1
100
AcDbPolyline
 90
    8
 70
    1
 43
0
 10
-32.08124943533241
 20
-65.15949276564963
 10
-32.08124943533241
 20
-52.15949276564962
 42
-0.414213562373095
 10
-31.58124943533241
 20
-51.65949276564962
 10
-18.58124943533241
 20
-51.65949276564962
 42
-0.414213562373095
 10
-18.08124943533241
 20
-52.15949276564962
 10
-18.08124943533241
 20
-65.15949276564963
 42
-0.414213562373095
 10
-18.58124943533241
 20
-65.65949276564963
 10
-31.58124943533241
 20
-65.65949276564963
 42
-0.414213562373095
  0
LWPOLYLINE
  5
79
100
AcDbEntity
  8
0
  6
ByLayer
 62
  256
370
   -1
100
AcDbPolyline
 90
    8
 70
    1
 43
0
 10
-13.0312494353324
 20
-65.15949276564963
 10
-13.03124943533241
 20
-52.15949276564962
 42
-0.414213562373095
 10
-12.53124943533241
 20
-51.65949276564962
 10
0.4687505646675927
 20
-51.65949276564962
 42
-0.414213562373096
 10
0.9687505646675942
 20
-52.15949276564962
 10
0.968750564667594
 20
-65.15949276564962
 42
-0.4142135623730961
 10
0.4687505646675924
 20
-65.65949276564962
 10
-12.53124943533241
 20
-65.65949276564963
 42
-0.4142135623730898
  0
LWPOLYLINE
  5
7A
100
AcDbEntity
  8
0
  6
ByLayer
 62
  256
370
   -1
100
AcDbPolyline
 90
    8
 70
    1
 43
0
 10
6.018750564667603
 20
-65.15949276564962
 10
6.018750564667613
 20
-52.15949276564962
 42
-0.4142135623730992
 10
6.518750564667606
 20
-51.65949276564962
 10
19.51875056466761
 20
-51.6594927656496
 42
-0.4142135623731075
 10
20.01875056466762
 20
-52.15949276564962
 10
20.01875056466761
 20
-65.15949276564962
 42
-0.414213562373095
 10
19.51875056466761
 20
-65.65949276564962
 10
6.518750564667606
 20
-65.65949276564962
 42
-0.4142135623730971
  0
LWPOLYLINE
  5
7B
100
AcDbEntity
  8
0
  6
ByLayer
 62
  256
370
   -1
100
AcDbPolyline
 90
    8
 70
    1
 43
0
 10
25.0687505646676
 20
-65.15949276564962
 10
25.06875056466761
 20
-52.15949276564962
 42
-0.4142135623731054
 10
25.5687505646676
 20
-51.65949276564962
 10
38.56875056466761
 20
-51.6594927656496
 42
-0.4142135623731034
 10
39.06875056466761
 20
-52.15949276564962
 10
39.06875056466761
 20
-65.15949276564962
 42
-0.4142135623730909
 10
38.56875056466761
 20
-65.65949276564963
 10
25.5687505646676
 20
-65.65949276564962
 42
-0.4142135623730929
  0
LWPOLYLINE
  5
7C
100
AcDbEntity
  8
0
  6
ByLayer
 62
  256
370
   -1
100
AcDbPolyline
 90
    8
 70
    1
 43
0
 10
44.11875056466761
 20
-65.15949276564962
 10
44.11875056466761
 20
-52.15949276564962
 42
-0.4142135623731034
 10
44.61875056466761
 20
-51.6594927656496
 10
57.61875056466762
 20
-51.6594927656496
 42
-0.4142135623731159
 10
58.11875056466762
 20
-52.15949276564962
 10
58.11875056466762
 20
-65.15949276564962
 42
-0.4142135623731034
 10
57.61875056466762
 20
-65.65949276564963
 10
44.61875056466761
 20
-65.65949276564962
 42
-0.4142135623731117
  0
LWPOLYLINE
  5
7D
100
AcDbEntity
  8
0
  6
ByLayer
 62
  256
370
   -1
100
AcDbPolyline
 90
    8
 70
    1
 43
0
 10
63.16875056466763
 20
-65.15949276564962
 10
63.16875056466763
 20
-52.15949276564962
 42
-0.4142135623731075
 10
63.66875056466764
 20
-51.6594927656496
 10
76.66875056466763
 20
-51.6594927656496
 42
-0.41421356237312
 10
77.16875056466763
 20
-52.15949276564962
 10
77.16875056466763
 20
-65.15949276564962
 42
-0.4142135623731034
 10
76.66875056466763
 20
-65.65949276564963
 10
63.66875056466764
 20
-65.65949276564962
 42
-0.4142135623731159
  0
LWPOLYLINE
  5
7E
100
AcDbEntity
  8
0
  6
ByLayer
 62
  256
370
   -1
100
AcDbPolyline
 90
    8
 70
    1
 43
0
 10
82.2187505646676
 20
-65.15949276564962
 10
82.21875056466759
 20
-52.15949276564962
 42
-0.4142135623731117
 10
82.71875056466762
 20
-51.65949276564962
 10
95.71875056466763
 20
-51.65949276564959
 42
-0.4142135623731075
 10
96.21875056466763
 20
-52.15949276564962
 10
96.21875056466763
 20
-65.15949276564962
 42
-0.4142135623731117
 10
95.71875056466763
 20
-65.65949276564962
 10
82.71875056466762
 20
-65.65949276564962
 42
-0.4142135623731117
  0
LWPOLYLINE
  5
7F
100
AcDbEntity
  8
0
  6
ByLayer
 62
  256
370
   -1
100
AcDbPolyline
 90
    8
 70
    1
 43
0
 10
-22.55624943533239
 20
-84.20949276564961
 10
-22.5562494353324
 20
-71.20949276564963
 42
-0.414213562373095
 10
-22.0562494353324
 20
-70.70949276564963
 10
-9.056249435332395
 20
-70.70949276564961
 42
-0.4142135623730929
 10
-8.556249435332399
 20
-71.20949276564961
 10
-8.556249435332392
 20
-84.20949276564961
 42
-0.4142135623730981
 10
-9.056249435332395
 20
-84.70949276564964
 10
-22.0562494353324
 20
-84.70949276564963
 42
-0.4142135623731137
  0
LWPOLYLINE
  5
80
100
AcDbEntity
  8
0
  6
ByLayer
 62
  256
370
   -1
100
AcDbPolyline
 90
    8
 70
    1
 43
0
 10
-3.50624943533238
 20
-84.20949276564961
 10
-3.506249435332388
 20
-71.20949276564961
 42
-0.4142135623730932
 10
-3.006249435332391
 20
-70.70949276564961
 10
9.993750564667607
 20
-70.70949276564961
 42
-0.4142135623730961
 10
10.49375056466761
 20
-71.20949276564961
 10
10.49375056466761
 20
-84.20949276564961
 42
-0.4142135623730981
 10
9.993750564667607
 20
-84.70949276564964
 10
-3.006249435332391
 20
-84.70949276564963
 42
-0.4142135623731127
  0
LWPOLYLINE
  5
81
100
AcDbEntity
  8
0
  6
ByLayer
 62
  256
370
   -1
100
AcDbPolyline
 90
    8
 70
    1
 43
0
 10
15.54375056466758
 20
-84.20949276564961
 10
15.54375056466761
 20
-71.20949276564961
 42
-0.4142135623730825
 10
16.04375056466759
 20
-70.70949276564964
 10
29.0437505646676
 20
-70.70949276564961
 42
-0.4142135623730971
 10
29.54375056466761
 20
-71.20949276564961
 10
29.54375056466761
 20
-84.20949276564961
 42
-0.4142135623731013
 10
29.0437505646676
 20
-84.70949276564964
 10
16.04375056466759
 20
-84.70949276564964
 42
-0.4142135623731013
  0
LWPOLYLINE
  5
82
100
AcDbEntity
  8
0
  6
ByLayer
 62
  256
370
   -1
100
AcDbPolyline
 90
    8
 70
    1
 43
0
 10
34.5937505646676
 20
-84.20949276564961
 10
34.5937505646676
 20
-71.20949276564961
 42
-0.414213562373095
 10
35.0937505646676
 20
-70.70949276564961
 10
48.09375056466759
 20
-70.70949276564961
 42
-0.4142135623731075
 10
48.59375056466761
 20
-71.20949276564961
 10
48.5937505646676
 20
-84.20949276564961
 42
-0.4142135623731034
 10
48.09375056466759
 20
-84.70949276564964
 10
35.0937505646676
 20
-84.70949276564964
 42
-0.414213562373095
  0
LWPOLYLINE
  5
83
100
AcDbEntity
  8
0
  6
ByLayer
 62
  256
370
   -1
100
AcDbPolyline
 90
    8
 70
    1
 43
0
 10
53.64375056466762
 20
-84.20949276564961
 10
53.64375056466763
 20
-71.20949276564961
 42
-0.414213562373095
 10
54.14375056466763
 20
-70.70949276564961
 10
67.14375056466763
 20
-70.70949276564961
 42
-0.4142135623731117
 10
67.64375056466766
 20
-71.20949276564961
 10
67.64375056466763
 20
-84.20949276564961
 42
-0.4142135623731117
 10
67.14375056466763
 20
-84.70949276564964
 10
54.14375056466763
 20
-84.70949276564963
 42
-0.4142135623731034
  0
LWPOLYLINE
  5
84
100
AcDbEntity
  8
0
  6
ByLayer
 62
  256
370
   -1
100
AcDbPolyline
 90
    8
 70
    1
 43
0
 10
72.6937505646676
 20
-84.20949276564961
 10
72.6937505646676
 20
-71.20949276564961
 42
-0.4142135623730867
 10
73.19375056466761
 20
-70.70949276564964
 10
86.19375056466762
 20
-70.70949276564961
 42
-0.414213562373095
 10
86.69375056466762
 20
-71.20949276564961
 10
86.69375056466762
 20
-84.20949276564961
 42
-0.4142135623731117
 10
86.19375056466762
 20
-84.70949276564964
 10
73.19375056466761
 20
-84.70949276564963
 42
-0.4142135623731117
  0
LWPOLYLINE
  5
85
100
AcDbEntity
  8
0
  6
ByLayer
 62
  256
370
   -1
100
AcDbPolyline
 90
    8
 70
    1
 43
0
 10
91.74375056466761
 20
-84.20949276564961
 10
91.74375056466759
 20
-71.20949276564961
 42
-0.414213562373095
 10
92.24375056466762
 20
-70.70949276564961
 10
105.2437505646676
 20
-70.70949276564961
 42
-0.414213562373095
 10
105.7437505646676
 20
-71.20949276564961
 10
105.7437505646676
 20
-84.20949276564961
 42
-0.4142135623731117
 10
105.2437505646676
 20
-84.70949276564964
 10
92.24375056466762
 20
-84.70949276564963
 42
-0.414213562373095
  0
LWPOLYLINE
  5
86
100
AcDbEntity
  8
0
  6
ByLayer
 62
  256
370
   -1
100
AcDbPolyline
 90
    8
 70
    1
 43
0
 10
110.7937505646676
 20
-84.20949276564961
 10
110.7937505646676
 20
-71.2094927656496
 42
-0.4142135623731117
 10
111.2937505646676
 20
-70.7094927656496
 10
124.2937505646676
 20
-70.7094927656496
 42
-0.414213562373095
 10
124.7937505646676
 20
-71.2094927656496
 10
124.7937505646676
 20
-84.20949276564961
 42
-0.4142135623731117
 10
124.2937505646676
 20
-84.70949276564964
 10
111.2937505646676
 20
-84.70949276564963
 42
-0.414213562373095
  0
LWPOLYLINE
  5
87
100
AcDbEntity
  8
0
  6
ByLayer
 62
  256
370
   -1
100
AcDbPolyline
 90
    8
 70
    1
 43
0
 10
129.8437505646676
 20
-84.20949276564961
 10
129.8437505646676
 20
-71.2094927656496
 42
-0.4142135623731283
 10
130.3437505646676
 20
-70.70949276564959
 10
143.3437505646676
 20
-70.7094927656496
 42
-0.414213562373095
 10
143.8437505646676
 20
-71.2094927656496
 10
143.8437505646676
 20
-84.20949276564961
 42
-0.4142135623731117
 10
143.3437505646676
 20
-84.70949276564964
 10
130.3437505646676
 20
-84.70949276564964
 42
-0.4142135623731117
  0
LWPOLYLINE
  5
88
100
AcDbEntity
  8
0
  6
ByLayer
 62
  256
370
   -1
100
AcDbPolyline
 90
    8
 70
    1
 43
0
 10
148.8937505646676
 20
-84.20949276564961
 10
148.8937505646676
 20
-71.2094927656496
 42
-0.4142135623731283
 10
149.3937505646676
 20
-70.70949276564959
 10
162.3937505646676
 20
-70.70949276564959
 42
-0.414213562373095
 10
162.8937505646677
 20
-71.2094927656496
 10
162.8937505646676
 20
-84.20949276564961
 42
-0.4142135623730201
 10
162.3937505646676
 20
-84.70949276564966
 10
149.3937505646676
 20
-84.70949276564964
 42
-0.4142135623731117
  0
LWPOLYLINE
  5
89
100
AcDbEntity
  8
0
  6
ByLayer
 62
  256
370
   -1
100
AcDbPolyline
 90
    8
 70
    1
 43
0
 10
153.6562505646676
 20
-103.2594927656496
 10
153.6562505646676
 20
-90.2594927656496
 42
-0.4142135623730784
 10
154.1562505646676
 20
-89.75949276564957
 10
167.1562505646676
 20
-89.75949276564957
 42
-0.4142135623730701
 10
167.6562505646677
 20
-90.2594927656496
 10
167.6562505646676
 20
-103.2594927656496
 42
-0.4142135623730867
 10
167.1562505646676
 20
-103.7594927656496
 10
154.1562505646676
 20
-103.7594927656496
 42
-0.4142135623730701
  0
LWPOLYLINE
  5
8A
100
AcDbEntity
  8
0
  6
ByLayer
 62
  256
370
   -1
100
AcDbPolyline
 90
    8
 70
    1
 43
0
 10
129.8437505646676
 20
-103.2594927656496
 10
129.8437505646676
 20
-90.2594927656496
 42
-0.4142135623730784
 10
130.3437505646676
 20
-89.75949276564957
 10
143.3437505646676
 20
-89.75949276564957
 42
-0.4142135623730784
 10
143.8437505646676
 20
-90.2594927656496
 10
143.8437505646676
 20
-103.2594927656496
 42
-0.4142135623730701
 10
143.3437505646676
 20
-103.7594927656496
 10
130.3437505646676
 20
-103.7594927656496
 42
-0.4142135623730701
  0
LWPOLYLINE
  5
8B
100
AcDbEntity
  8
0
  6
ByLayer
 62
  256
370
   -1
100
AcDbPolyline
 90
    8
 70
    1
 43
0
 10
109.5312505646676
 20
-103.2594927656496
 10
109.5312505646676
 20
-89.25949276564961
 42
-0.4142135623731283
 10
110.0312505646676
 20
-88.75949276564961
 10
116.0312505646676
 20
-88.75949276564961
 42
-0.4142135623730867
 10
116.5312505646676
 20
-89.25949276564961
 10
116.5312505646676
 20
-103.2594927656496
 42
-0.4142135623730784
 10
116.0312505646676
 20
-103.7594927656496
 10
110.0312505646676
 20
-103.7594927656496
 42
-0.4142135623730784
  0
LWPOLYLINE
  5
8C
100
AcDbEntity
  8
0
  6
ByLayer
 62
  256
370
   -1
100
AcDbPolyline
 90
    8
 70
    1
 43
0
 10
14.2812505646676
 20
-103.2594927656496
 10
14.2812505646676
 20
-89.25949276564961
 42
-0.4142135623731211
 10
14.78125056466759
 20
-88.75949276564961
 10
20.7812505646676
 20
-88.75949276564961
 42
-0.4142135623731179
 10
21.28125056466759
 20
-89.25949276564961
 10
21.28125056466759
 20
-103.2594927656496
 42
-0.4142135623731034
 10
20.7812505646676
 20
-103.7594927656496
 10
14.78125056466759
 20
-103.7594927656496
 42
-0.4142135623731065
  0
LWPOLYLINE
  5
8D
100
AcDbEntity
  8
0
  6
ByLayer
 62
  256
370
   -1
100
AcDbPolyline
 90
    8
 70
    1
 43
0
 10
-13.03124943533238
 20
-103.2594927656496
 10
-13.0312494353324
 20
-90.25949276564961
 42
-0.414213562373095
 10
-12.5312494353324
 20
-89.75949276564961
 10
0.4687505646676015
 20
-89.75949276564961
 42
-0.4142135623731054
 10
0.9687505646675909
 20
-90.25949276564961
 10
0.9687505646676081
 20
-103.2594927656496
 42
-0.4142135623730935
 10
0.4687505646676008
 20
-103.7594927656497
 10
-12.5312494353324
 20
-103.7594927656497
 42
-0.4142135623730971
  0
LWPOLYLINE
  5
8E
100
AcDbEntity
  8
0
  6
ByLayer
 62
  256
370
   -1
100
AcDbPolyline
 90
    8
 70
    1
 43
0
 10
-36.84374943533239
 20
-103.2594927656496
 10
-36.8437494353324
 20
-90.25949276564961
 42
-0.4142135623731034
 10
-36.34374943533241
 20
-89.75949276564961
 10
-23.34374943533241
 20
-89.75949276564961
 42
-0.4142135623731096
 10
-22.84374943533241
 20
-90.25949276564961
 10
-22.84374943533241
 20
-103.2594927656496
 42
-0.4142135623730888
 10
-23.34374943533241
 20
-103.7594927656497
 10
-36.3437494353324
 20
-103.7594927656497
 42
-0.4142135623731034
  0
CIRCLE
  5
8F
100
AcDbEntity
  8
0
  6
ByLayer
 62
  256
370
   -1
100
AcDbCircle
 10
12.7678004673324
 20
-109.2531516759849
 40
1.25
  0
CIRCLE
  5
90
100
AcDbEntity
  8
0
  6
ByLayer
 62
  256
370
   -1
100
AcDbCircle
 10
214.744700564671
 20
-8.534488996585868
 40
1.25
  0
CIRCLE
  5
91
100
AcDbEntity
  8
0
  6
ByLayer
 62
  256
370
   -1
100
AcDbCircle
 10
-64.88219943533032
 20
-8.534489073656392
 40
1.25
  0
CIRCLE
  5
92
100
AcDbEntity
  8
0
  6
ByLayer
 62
  256
370
   -1
100
AcDbCircle
 10
-41.74999943533238
 20
-39.60949276565609
 40
2.5
  0
CIRCLE
  5
93
100
AcDbEntity
  8
0
  6
ByLayer
 62
  256
370
   -1
100
AcDbCircle
 10
214.7447004673337
 20
-109.2531515990931
 40
1.25
  0
CIRCLE
  5
94
100
AcDbEntity
  8
0
  6
ByLayer
 62
  256
370
   -1
100
AcDbCircle
 10
175.9197004673345
 20
-109.2531515991222
 40
1.25000000000032
  0
CIRCLE
  5
95
100
AcDbEntity
  8
0
  6
ByLayer
 62
  256
370
   -1
100
AcDbCircle
 10
-26.05719943533034
 20
-8.534489073627405
 40
1.25000000000028
  0
CIRCLE
  5
96
100
AcDbEntity
  8
0
  6
ByLayer
 62
  256
370
   -1
100
AcDbCircle
 10
175.919700564671
 20
-8.534488996555844
 40
1.25000000000032
  0
CIRCLE
  5
97
100
AcDbEntity
  8
0
  6
ByLayer
 62
  256
370
   -1
100
AcDbCircle
 10
12.76780056466967
 20
-8.534489073656427
 40
1.25
  0
CIRCLE
  5
98
100
AcDbEntity
  8
0
  6
ByLayer
 62
  256
370
   -1
100
AcDbCircle
 10
-26.05719953266751
 20
-109.2531516760139
 40
1.25000000000028
  0
CIRCLE
  5
99
100
AcDbEntity
  8
0
  6
ByLayer
 62
  256
370
   -1
100
AcDbCircle
 10
137.0947004673344
 20
-109.2531515992713
 40
1.25
  0
CIRCLE
  5
9A
100
AcDbEntity
  8
0
  6
ByLayer
 62
  256
370
   -1
100
AcDbCircle
 10
-64.88219954021727
 20
-109.2531516761629
 40
1.25
  0
CIRCLE
  5
9B
100
AcDbEntity
  8
0
  6
ByLayer
 62
  256
370
   -1
100
AcDbCircle
 10
137.094700564671
 20
-8.534488996584864
 40
1.25
  0
LWPOLYLINE
  5
9C
100
AcDbEntity
  8
0
  6
ByLayer
 62
  256
370
   -1
100
AcDbPolyline
 90
    8
 70
    1
 43
0
 10
72.56370844504563
 20
-89.81661814526628
 42
0.414213562373095
 10
72.06370844504563
 20
-89.31661814526628
 10
59.06370844504566
 20
-89.31661814526628
 42
0.4142135623731034
 10
58.56370844504563
 20
-89.81661814526628
 10
58.56370844504564
 20
-102.8166181452663
 42
0.4142135623731034
 10
59.06370844504566
 20
-103.3166181452664
 10
72.06370844504562
 20
-103.3166181452663
 42
0.4142135623731034
 10
72.56370844504563
 20
-102.8166181452663
  0
ENDSEC
  0
SECTION
  2
OBJECTS
  0
DICTIONARY
  5
C
330
0
100
AcDbDictionary
281
    1
  3
ACAD_GROUP
350
D
  0
DICTIONARY
  5
D
330
C
100
AcDbDictionary
281
    1
  0
ENDSEC
  0
EOF
